<mxfile host="app.diagrams.net" modified="2023-08-16T05:46:45.507Z" agent="Mozilla/5.0 (Windows NT 10.0; Win64; x64) AppleWebKit/537.36 (KHTML, like Gecko) Chrome/115.0.0.0 Safari/537.36" etag="YIc3AIXBNQWsBZ0iDARo" version="21.6.8" type="device">
  <diagram name="Page-1" id="Ulqz6ctCM9x09rQVWkXc">
    <mxGraphModel dx="1313" dy="1768" grid="1" gridSize="10" guides="1" tooltips="1" connect="1" arrows="1" fold="1" page="1" pageScale="1" pageWidth="850" pageHeight="1100" background="none" math="0" shadow="0">
      <root>
        <mxCell id="0" />
        <mxCell id="1" parent="0" />
        <mxCell id="ILElFcMMah7DCPC0IeXU-45" value="" style="verticalLabelPosition=bottom;verticalAlign=top;html=1;shape=mxgraph.basic.rect;fillColor2=none;strokeWidth=1;size=20;indent=5;fillColor=#d5e8d4;strokeColor=#82b366;" parent="1" vertex="1">
          <mxGeometry x="40" y="450" width="540" height="210" as="geometry" />
        </mxCell>
        <mxCell id="ILElFcMMah7DCPC0IeXU-40" value="" style="verticalLabelPosition=bottom;verticalAlign=top;html=1;shape=mxgraph.basic.rect;fillColor2=none;strokeWidth=1;size=20;indent=5;fillColor=#e1d5e7;strokeColor=#9673a6;" parent="1" vertex="1">
          <mxGeometry x="670" y="-10" width="270" height="660" as="geometry" />
        </mxCell>
        <mxCell id="ILElFcMMah7DCPC0IeXU-34" value="" style="verticalLabelPosition=bottom;verticalAlign=top;html=1;shape=mxgraph.basic.rect;fillColor2=none;strokeWidth=1;size=20;indent=5;fillColor=#fff2cc;strokeColor=#d6b656;" parent="1" vertex="1">
          <mxGeometry x="425" y="270" width="180" height="170" as="geometry" />
        </mxCell>
        <mxCell id="ILElFcMMah7DCPC0IeXU-31" value="" style="verticalLabelPosition=bottom;verticalAlign=top;html=1;shape=mxgraph.basic.rect;fillColor2=none;strokeWidth=1;size=20;indent=5;fillColor=#dae8fc;strokeColor=#6c8ebf;" parent="1" vertex="1">
          <mxGeometry x="45" y="260" width="195" height="170" as="geometry" />
        </mxCell>
        <mxCell id="ILElFcMMah7DCPC0IeXU-30" value="" style="verticalLabelPosition=bottom;verticalAlign=top;html=1;shape=mxgraph.basic.rect;fillColor2=none;strokeWidth=1;size=20;indent=5;fillColor=#ffe6cc;strokeColor=#d79b00;" parent="1" vertex="1">
          <mxGeometry x="50" y="39" width="380" height="200" as="geometry" />
        </mxCell>
        <mxCell id="ILElFcMMah7DCPC0IeXU-22" style="edgeStyle=orthogonalEdgeStyle;rounded=0;orthogonalLoop=1;jettySize=auto;html=1;exitX=1;exitY=0.75;exitDx=0;exitDy=0;entryX=0;entryY=0.5;entryDx=0;entryDy=0;" parent="1" source="ILElFcMMah7DCPC0IeXU-20" target="ILElFcMMah7DCPC0IeXU-21" edge="1">
          <mxGeometry relative="1" as="geometry" />
        </mxCell>
        <mxCell id="ILElFcMMah7DCPC0IeXU-20" value="&lt;p style=&quot;margin:0px;margin-top:4px;text-align:center;&quot;&gt;&lt;b&gt;User&lt;/b&gt;&lt;/p&gt;&lt;hr size=&quot;1&quot;&gt;&lt;p style=&quot;margin:0px;margin-left:4px;&quot;&gt;+ UserID&lt;/p&gt;&lt;p style=&quot;margin:0px;margin-left:4px;&quot;&gt;+ Username&lt;/p&gt;&lt;p style=&quot;margin:0px;margin-left:4px;&quot;&gt;+ Password&lt;/p&gt;&lt;p style=&quot;margin:0px;margin-left:4px;&quot;&gt;+ Email&lt;/p&gt;&lt;p style=&quot;margin:0px;margin-left:4px;&quot;&gt;+ RoleID&lt;/p&gt;" style="verticalAlign=top;align=left;overflow=fill;fontSize=12;fontFamily=Helvetica;html=1;whiteSpace=wrap;" parent="1" vertex="1">
          <mxGeometry x="80" y="80" width="110" height="120" as="geometry" />
        </mxCell>
        <mxCell id="ILElFcMMah7DCPC0IeXU-21" value="&lt;p style=&quot;margin:0px;margin-top:4px;text-align:center;&quot;&gt;&lt;b&gt;User&lt;/b&gt;&lt;/p&gt;&lt;hr size=&quot;1&quot;&gt;&lt;p style=&quot;margin:0px;margin-left:4px;&quot;&gt;+ RoleID&lt;/p&gt;&lt;p style=&quot;margin:0px;margin-left:4px;&quot;&gt;+ RoleName&lt;/p&gt;" style="verticalAlign=top;align=left;overflow=fill;fontSize=12;fontFamily=Helvetica;html=1;whiteSpace=wrap;" parent="1" vertex="1">
          <mxGeometry x="300" y="80" width="110" height="80" as="geometry" />
        </mxCell>
        <mxCell id="ILElFcMMah7DCPC0IeXU-24" value="&lt;p style=&quot;margin:0px;margin-top:4px;text-align:center;&quot;&gt;&lt;b&gt;Product&lt;/b&gt;&lt;/p&gt;&lt;hr size=&quot;1&quot;&gt;&lt;p style=&quot;margin:0px;margin-left:4px;&quot;&gt;PK: ProdID&lt;/p&gt;&lt;p style=&quot;margin:0px;margin-left:4px;&quot;&gt;&amp;nbsp; &amp;nbsp;ProdName&lt;/p&gt;&lt;p style=&quot;margin:0px;margin-left:4px;&quot;&gt;&amp;nbsp; &amp;nbsp;ProdDesc&lt;/p&gt;&lt;p style=&quot;margin:0px;margin-left:4px;&quot;&gt;&amp;nbsp; &amp;nbsp;ProdPrice&lt;/p&gt;&lt;p style=&quot;margin:0px;margin-left:4px;&quot;&gt;&amp;nbsp; ProdQty&lt;/p&gt;" style="verticalAlign=top;align=left;overflow=fill;fontSize=12;fontFamily=Helvetica;html=1;whiteSpace=wrap;" parent="1" vertex="1">
          <mxGeometry x="80" y="290" width="110" height="120" as="geometry" />
        </mxCell>
        <mxCell id="ILElFcMMah7DCPC0IeXU-25" value="&lt;p style=&quot;margin:0px;margin-top:4px;text-align:center;&quot;&gt;&lt;b&gt;Order&lt;/b&gt;&lt;/p&gt;&lt;hr size=&quot;1&quot;&gt;&lt;p style=&quot;margin:0px;margin-left:4px;&quot;&gt;PK: OrderID&lt;/p&gt;&lt;p style=&quot;margin:0px;margin-left:4px;&quot;&gt;FK: OPROPID&lt;/p&gt;&lt;p style=&quot;margin:0px;margin-left:4px;&quot;&gt;&amp;nbsp; &amp;nbsp; &amp;nbsp; ORDERDATE&lt;/p&gt;&lt;p style=&quot;margin:0px;margin-left:4px;&quot;&gt;&amp;nbsp; &amp;nbsp; &amp;nbsp; ORDERQAUNT&lt;/p&gt;&lt;p style=&quot;margin:0px;margin-left:4px;&quot;&gt;&amp;nbsp; &amp;nbsp; &amp;nbsp;ORDERPRICE&lt;/p&gt;" style="verticalAlign=top;align=left;overflow=fill;fontSize=12;fontFamily=Helvetica;html=1;whiteSpace=wrap;" parent="1" vertex="1">
          <mxGeometry x="80" y="490" width="110" height="110" as="geometry" />
        </mxCell>
        <mxCell id="ILElFcMMah7DCPC0IeXU-27" style="edgeStyle=orthogonalEdgeStyle;rounded=0;orthogonalLoop=1;jettySize=auto;html=1;entryX=1.045;entryY=0.357;entryDx=0;entryDy=0;entryPerimeter=0;" parent="1" target="ILElFcMMah7DCPC0IeXU-25" edge="1">
          <mxGeometry relative="1" as="geometry">
            <Array as="points">
              <mxPoint x="290" y="520" />
              <mxPoint x="240" y="520" />
              <mxPoint x="240" y="529" />
            </Array>
            <mxPoint x="310" y="510" as="sourcePoint" />
          </mxGeometry>
        </mxCell>
        <mxCell id="ILElFcMMah7DCPC0IeXU-29" style="edgeStyle=orthogonalEdgeStyle;rounded=0;orthogonalLoop=1;jettySize=auto;html=1;exitX=0;exitY=0.25;exitDx=0;exitDy=0;entryX=1;entryY=0.25;entryDx=0;entryDy=0;" parent="1" target="ILElFcMMah7DCPC0IeXU-24" edge="1">
          <mxGeometry relative="1" as="geometry">
            <Array as="points">
              <mxPoint x="300" y="510" />
              <mxPoint x="260" y="510" />
              <mxPoint x="260" y="320" />
            </Array>
            <mxPoint x="300" y="490" as="sourcePoint" />
          </mxGeometry>
        </mxCell>
        <mxCell id="ILElFcMMah7DCPC0IeXU-33" style="edgeStyle=orthogonalEdgeStyle;rounded=0;orthogonalLoop=1;jettySize=auto;html=1;exitX=0;exitY=0.5;exitDx=0;exitDy=0;entryX=1;entryY=0.25;entryDx=0;entryDy=0;" parent="1" source="ILElFcMMah7DCPC0IeXU-32" target="ILElFcMMah7DCPC0IeXU-24" edge="1">
          <mxGeometry relative="1" as="geometry" />
        </mxCell>
        <mxCell id="ILElFcMMah7DCPC0IeXU-32" value="&lt;p style=&quot;margin:0px;margin-top:4px;text-align:center;&quot;&gt;&lt;b&gt;Stock_Notifier&lt;/b&gt;&lt;/p&gt;&lt;hr size=&quot;1&quot;&gt;&lt;p style=&quot;margin:0px;margin-left:4px;&quot;&gt;&lt;br&gt;&lt;/p&gt;&lt;p style=&quot;margin:0px;margin-left:4px;&quot;&gt;+ ProductID&lt;/p&gt;&lt;p style=&quot;margin:0px;margin-left:4px;&quot;&gt;+ PRODQUANT&lt;/p&gt;&lt;p style=&quot;margin:0px;margin-left:4px;&quot;&gt;+ Comment&lt;/p&gt;" style="verticalAlign=top;align=left;overflow=fill;fontSize=12;fontFamily=Helvetica;html=1;whiteSpace=wrap;" parent="1" vertex="1">
          <mxGeometry x="460" y="320" width="110" height="100" as="geometry" />
        </mxCell>
        <mxCell id="ILElFcMMah7DCPC0IeXU-36" style="edgeStyle=orthogonalEdgeStyle;rounded=0;orthogonalLoop=1;jettySize=auto;html=1;exitX=0;exitY=0.5;exitDx=0;exitDy=0;entryX=1.016;entryY=0.369;entryDx=0;entryDy=0;entryPerimeter=0;" parent="1" source="ILElFcMMah7DCPC0IeXU-35" target="ILElFcMMah7DCPC0IeXU-25" edge="1">
          <mxGeometry relative="1" as="geometry">
            <mxPoint x="210" y="530" as="targetPoint" />
            <Array as="points">
              <mxPoint x="211" y="590" />
              <mxPoint x="211" y="531" />
            </Array>
          </mxGeometry>
        </mxCell>
        <mxCell id="ILElFcMMah7DCPC0IeXU-35" value="&lt;p style=&quot;margin:0px;margin-top:4px;text-align:center;&quot;&gt;&lt;b&gt;Order_History&lt;/b&gt;&lt;/p&gt;&lt;hr size=&quot;1&quot;&gt;&lt;p style=&quot;margin:0px;margin-left:4px;&quot;&gt;+ HistoryID&lt;/p&gt;&lt;p style=&quot;margin:0px;margin-left:4px;&quot;&gt;+ OrderID&lt;/p&gt;&lt;p style=&quot;margin:0px;margin-left:4px;&quot;&gt;+ Date&lt;/p&gt;&lt;p style=&quot;margin:0px;margin-left:4px;&quot;&gt;+ Comment&lt;/p&gt;" style="verticalAlign=top;align=left;overflow=fill;fontSize=12;fontFamily=Helvetica;html=1;whiteSpace=wrap;" parent="1" vertex="1">
          <mxGeometry x="450" y="540" width="110" height="100" as="geometry" />
        </mxCell>
        <mxCell id="ILElFcMMah7DCPC0IeXU-37" value="&lt;p style=&quot;margin:0px;margin-top:4px;text-align:center;&quot;&gt;&lt;b&gt;Sales_Report&lt;/b&gt;&lt;/p&gt;&lt;hr size=&quot;1&quot;&gt;&lt;p style=&quot;margin:0px;margin-left:4px;&quot;&gt;+ CUSTOMERID&lt;/p&gt;&lt;p style=&quot;margin:0px;margin-left:4px;&quot;&gt;&amp;nbsp; &amp;nbsp; ORDERID&lt;/p&gt;&lt;p style=&quot;margin:0px;margin-left:4px;&quot;&gt;&amp;nbsp; &amp;nbsp; ORDERDATE&lt;/p&gt;&lt;p style=&quot;margin:0px;margin-left:4px;&quot;&gt;&amp;nbsp; &amp;nbsp; ORDERQUANT&lt;/p&gt;&lt;p style=&quot;margin:0px;margin-left:4px;&quot;&gt;&amp;nbsp; &amp;nbsp; ORDERPRICE&lt;/p&gt;" style="verticalAlign=top;align=left;overflow=fill;fontSize=12;fontFamily=Helvetica;html=1;whiteSpace=wrap;" parent="1" vertex="1">
          <mxGeometry x="760" y="350" width="110" height="120" as="geometry" />
        </mxCell>
        <mxCell id="ILElFcMMah7DCPC0IeXU-48" style="edgeStyle=orthogonalEdgeStyle;rounded=0;orthogonalLoop=1;jettySize=auto;html=1;exitX=0;exitY=0.75;exitDx=0;exitDy=0;entryX=1;entryY=0.25;entryDx=0;entryDy=0;" parent="1" source="ILElFcMMah7DCPC0IeXU-38" target="ILElFcMMah7DCPC0IeXU-24" edge="1">
          <mxGeometry relative="1" as="geometry">
            <Array as="points">
              <mxPoint x="570" y="260" />
              <mxPoint x="380" y="260" />
              <mxPoint x="380" y="320" />
            </Array>
          </mxGeometry>
        </mxCell>
        <mxCell id="ILElFcMMah7DCPC0IeXU-38" value="&lt;p style=&quot;margin:0px;margin-top:4px;text-align:center;&quot;&gt;&lt;b&gt;Stock_Report&lt;/b&gt;&lt;/p&gt;&lt;hr size=&quot;1&quot;&gt;&lt;p style=&quot;margin:0px;margin-left:4px;&quot;&gt;+ PRODID&lt;/p&gt;&lt;p style=&quot;margin:0px;margin-left:4px;&quot;&gt;+ PRODNAME&lt;/p&gt;&lt;p style=&quot;margin:0px;margin-left:4px;&quot;&gt;+ PRODQUANT&lt;/p&gt;&lt;p style=&quot;margin:0px;margin-left:4px;&quot;&gt;+ PRODPRICE&lt;/p&gt;" style="verticalAlign=top;align=left;overflow=fill;fontSize=12;fontFamily=Helvetica;html=1;whiteSpace=wrap;" parent="1" vertex="1">
          <mxGeometry x="740" y="180" width="110" height="100" as="geometry" />
        </mxCell>
        <mxCell id="ILElFcMMah7DCPC0IeXU-42" value="&lt;b&gt;User Authentication&lt;/b&gt;" style="text;html=1;strokeColor=none;fillColor=none;align=center;verticalAlign=middle;whiteSpace=wrap;rounded=0;" parent="1" vertex="1">
          <mxGeometry x="120" y="40" width="120" height="30" as="geometry" />
        </mxCell>
        <mxCell id="ILElFcMMah7DCPC0IeXU-43" value="&lt;b&gt;Product Creation&lt;/b&gt;" style="text;html=1;strokeColor=none;fillColor=none;align=center;verticalAlign=middle;whiteSpace=wrap;rounded=0;" parent="1" vertex="1">
          <mxGeometry x="75" y="260" width="120" height="30" as="geometry" />
        </mxCell>
        <mxCell id="ILElFcMMah7DCPC0IeXU-44" value="&lt;b&gt;Stock Notification&lt;/b&gt;" style="text;html=1;strokeColor=none;fillColor=none;align=center;verticalAlign=middle;whiteSpace=wrap;rounded=0;" parent="1" vertex="1">
          <mxGeometry x="470" y="280" width="120" height="30" as="geometry" />
        </mxCell>
        <mxCell id="ILElFcMMah7DCPC0IeXU-46" value="&lt;b&gt;Order Placement&lt;/b&gt;" style="text;html=1;strokeColor=none;fillColor=none;align=center;verticalAlign=middle;whiteSpace=wrap;rounded=0;" parent="1" vertex="1">
          <mxGeometry x="75" y="460" width="120" height="30" as="geometry" />
        </mxCell>
        <mxCell id="ILElFcMMah7DCPC0IeXU-47" value="&lt;b&gt;Report Generation&lt;/b&gt;" style="text;html=1;strokeColor=none;fillColor=none;align=center;verticalAlign=middle;whiteSpace=wrap;rounded=0;" parent="1" vertex="1">
          <mxGeometry x="735" y="100" width="120" height="30" as="geometry" />
        </mxCell>
        <mxCell id="ILElFcMMah7DCPC0IeXU-51" value="&lt;b&gt;&lt;font style=&quot;font-size: 18px;&quot;&gt;Inventory Management System&lt;/font&gt;&lt;/b&gt;" style="text;html=1;strokeColor=none;fillColor=none;align=center;verticalAlign=middle;whiteSpace=wrap;rounded=0;" parent="1" vertex="1">
          <mxGeometry x="330" width="310" height="30" as="geometry" />
        </mxCell>
      </root>
    </mxGraphModel>
  </diagram>
</mxfile>
